<?xml version="1.0" standalone="no"?>
<!DOCTYPE svg PUBLIC "-//W3C//DTD SVG 20010904//EN"
 "http://www.w3.org/TR/2001/REC-SVG-20010904/DTD/svg10.dtd">
<svg version="1.0" xmlns="http://www.w3.org/2000/svg"
 width="512.000000pt" height="512.000000pt" viewBox="0 0 512.000000 512.000000"
 preserveAspectRatio="xMidYMid meet">
<metadata>
Created by potrace 1.14, written by Peter Selinger 2001-2017
</metadata>
<g transform="translate(0.000000,512.000000) scale(0.100000,-0.100000)"
fill="#000000" stroke="none">
<path d="M2320 5110 c-491 -47 -981 -247 -1365 -557 -129 -104 -340 -321 -433
-445 -274 -365 -443 -782 -504 -1238 -16 -123 -16 -509 0 -625 65 -459 233
-873 501 -1230 92 -122 304 -341 426 -440 368 -299 822 -493 1305 -557 123
-16 509 -16 625 0 459 65 873 233 1230 501 122 92 341 304 440 426 299 368
493 822 557 1305 16 123 16 509 0 625 -65 459 -233 873 -501 1230 -92 122
-304 341 -426 440 -365 297 -826 494 -1295 555 -115 15 -443 21 -560 10z m570
-634 c197 -35 356 -99 510 -202 274 -183 445 -473 475 -801 l6 -73 -239 0
-239 0 -7 68 c-19 187 -73 309 -187 423 -124 126 -278 189 -505 209 -110 10
-288 1 -374 -19 -207 -47 -358 -154 -430 -305 -44 -93 -60 -160 -60 -251 0
-133 35 -225 121 -319 130 -142 330 -235 829 -382 371 -109 648 -254 829 -432
188 -187 264 -374 264 -657 0 -118 -4 -155 -26 -236 -116 -440 -540 -710
-1157 -736 -462 -19 -893 130 -1167 403 -176 175 -264 366 -288 622 l-6 72
239 0 240 0 7 -67 c14 -144 60 -257 142 -355 174 -208 529 -319 896 -279 221
24 363 80 476 186 113 107 161 223 161 390 0 244 -95 383 -349 510 -122 61
-250 109 -511 190 -469 146 -714 268 -910 451 -196 185 -281 398 -267 672 24
495 425 859 1027 932 105 12 399 4 500 -14z"/>
</g>
</svg>
